<svg width="48" height="48" viewBox="0 0 48 48" fill="none" xmlns="http://www.w3.org/2000/svg">
<g clip-path="url(#clip0_3785_7274)">
<path d="M0 0H48V48H0V0Z" fill="#00008B"/>
<path d="M24 0V3L15.0938 12L24 20.7656V24H20.8594L11.9062 15.1875L3.1875 24H0V20.8125L8.71875 12.0469L0 3.46875V0H2.90625L11.9062 8.8125L20.625 0H24Z" fill="white"/>
<path d="M8.625 15.1875L9.14062 16.7812L1.96875 24H0V23.8594L8.625 15.1875ZM14.4375 14.625L16.9688 15L24 21.8906V24L14.4375 14.625ZM24 0L15 9.1875L14.8125 7.125L21.8438 0H24ZM0 0.046875L9.04688 8.90625L6.28125 8.53125L0 2.29688V0.046875Z" fill="#C8102E"/>
<path d="M8.25 0V24H15.75V0H8.25ZM0 8.25V15.75H24V8.25H0Z" fill="white"/>
<path d="M0 9.75V14.25H24V9.75H0ZM9.75 0V24H14.25V0H9.75Z" fill="#C8102E"/>
<path d="M18.9374 37.7629L14.6437 38.2691L15.0749 42.5723L11.9999 39.5348L8.90615 42.5535L9.36553 38.2504L5.07178 37.7066L8.71865 35.3816L6.46865 31.6879L10.5562 33.0941L12.0374 29.0254L13.4905 33.1035L17.5874 31.7254L15.3093 35.4004L18.9468 37.7535L18.9374 37.7629Z" fill="white"/>
<path d="M39.8157 38.5126L37.8938 38.7563L38.1001 40.6782L36.7126 39.3282L35.3345 40.6876L35.522 38.7657L33.6001 38.5407L35.222 37.4907L34.2001 35.8501L36.0376 36.4595L36.6845 34.6313L37.3501 36.4501L39.1782 35.822L38.1751 37.472L39.8157 38.5126Z" fill="white"/>
<path d="M38.9068 27.5245L39.16 26.3058L38.2412 25.462L39.4787 25.3214L39.9943 24.187L40.51 25.3214L41.7475 25.462L40.8287 26.3058L41.0818 27.5245L39.9943 26.9058L38.9068 27.5245Z" fill="white"/>
<path d="M31.0225 21.9004L29.1193 22.1066L29.2881 24.0098L27.9381 22.6504L26.5506 23.9723L26.7756 22.0691L24.8818 21.816L26.5037 20.8035L25.5193 19.1629L27.3287 19.8004L28.0037 18.0098L28.6318 19.8191L30.4506 19.2285L29.4287 20.8504L31.0225 21.9004Z" fill="white"/>
<path d="M47.5034 18.8254L45.544 19.0785L45.7597 21.0379L44.344 19.6598L42.9378 21.0473L43.1347 19.0785L41.1753 18.8535L42.8347 17.7754L41.794 16.0973L43.669 16.7254L44.3253 14.8691L45.0003 16.7254L46.8659 16.0785L45.8347 17.766L47.5034 18.8254Z" fill="white"/>
<path d="M39.8065 10.9969L37.8659 11.2125L38.044 13.1625L36.6659 11.775L35.2503 13.125L35.4753 11.1844L33.5347 10.9219L35.194 9.89062L34.1909 8.2125L36.0378 8.85938L36.7222 7.03125L37.3597 8.87812L39.2159 8.26875L38.1753 9.91875L39.8065 10.9969Z" fill="white"/>
</g>
<defs>
<clipPath id="clip0_3785_7274">
<rect width="48" height="48" rx="24" fill="white"/>
</clipPath>
</defs>
</svg>
