<svg width="48" height="48" viewBox="0 0 48 48" fill="none" xmlns="http://www.w3.org/2000/svg">
<g clip-path="url(#clip0_3785_7272)">
<path d="M0 0H48V16.0031H0V0Z" fill="#FF9933"/>
<path d="M0 16.0029H48V31.9967H0V16.0029Z" fill="white"/>
<path d="M0 31.9966H48V47.9997H0V31.9966Z" fill="#128807"/>
<path d="M24.0001 30.4001C27.5347 30.4001 30.4001 27.5347 30.4001 24.0001C30.4001 20.4655 27.5347 17.6001 24.0001 17.6001C20.4655 17.6001 17.6001 20.4655 17.6001 24.0001C17.6001 27.5347 20.4655 30.4001 24.0001 30.4001Z" fill="#000088"/>
<path d="M23.9999 29.5994C27.0927 29.5994 29.5999 27.0922 29.5999 23.9994C29.5999 20.9066 27.0927 18.3994 23.9999 18.3994C20.9071 18.3994 18.3999 20.9066 18.3999 23.9994C18.3999 27.0922 20.9071 29.5994 23.9999 29.5994Z" fill="white"/>
<path d="M29.5141 25.0188C29.6718 25.0396 29.8164 24.9286 29.8372 24.7709C29.858 24.6132 29.7469 24.4685 29.5892 24.4477C29.4315 24.427 29.2869 24.538 29.2661 24.6957C29.2454 24.8534 29.3564 24.9981 29.5141 25.0188Z" fill="#000088"/>
<path d="M23.9996 29.6001L24.1916 26.2401L23.9996 24.6401L23.8076 26.2401L23.9996 29.6001Z" fill="#000088"/>
<path d="M25.1585 18.4854C25.1792 18.3278 25.0682 18.1831 24.9105 18.1623C24.7528 18.1416 24.6082 18.2526 24.5874 18.4103C24.5666 18.568 24.6776 18.7126 24.8353 18.7334C24.993 18.7542 25.1377 18.6431 25.1585 18.4854Z" fill="#000088"/>
<path d="M29.7403 23.9999L26.3803 23.8079L24.7803 23.9999L26.3803 24.1919L29.7403 23.9999Z" fill="#000088"/>
<path d="M18.485 22.8406C18.3273 22.8198 18.1826 22.9308 18.1618 23.0885C18.1411 23.2462 18.2521 23.3909 18.4098 23.4116C18.5675 23.4324 18.7121 23.3214 18.7329 23.1637C18.7537 23.006 18.6427 22.8613 18.485 22.8406Z" fill="#000088"/>
<path d="M23.9994 18.2592L23.8074 21.6192L23.9994 23.2192L24.1914 21.6192L23.9994 18.2592Z" fill="#000088"/>
<path d="M22.8406 29.5146C22.8198 29.6722 22.9308 29.8169 23.0885 29.8377C23.2462 29.8584 23.3909 29.7474 23.4116 29.5897C23.4324 29.432 23.3214 29.2874 23.1637 29.2666C23.006 29.2458 22.8613 29.3569 22.8406 29.5146Z" fill="#000088"/>
<path d="M18.2588 24.0001L21.6188 24.1921L23.2188 24.0001L21.6188 23.8081L18.2588 24.0001Z" fill="#000088"/>
<path d="M29.5897 23.5564C29.7474 23.5357 29.8584 23.391 29.8377 23.2333C29.8169 23.0756 29.6722 22.9646 29.5145 22.9854C29.3568 23.0061 29.2458 23.1508 29.2666 23.3085C29.2874 23.4662 29.432 23.5772 29.5897 23.5564Z" fill="#000088"/>
<path d="M25.4492 29.4088L24.765 26.1136L24.1654 24.6178L24.3941 26.213L25.4492 29.4088Z" fill="#000088"/>
<path d="M23.6922 18.3732C23.6714 18.2155 23.5267 18.1045 23.369 18.1252C23.2113 18.146 23.1003 18.2907 23.1211 18.4484C23.1419 18.606 23.2865 18.7171 23.4442 18.6963C23.6019 18.6755 23.7129 18.5309 23.6922 18.3732Z" fill="#000088"/>
<path d="M29.545 22.5137L26.2498 23.1979L24.754 23.7975L26.3492 23.5688L29.545 22.5137Z" fill="#000088"/>
<path d="M18.3732 24.3073C18.2155 24.3281 18.1045 24.4728 18.1252 24.6305C18.146 24.7882 18.2907 24.8992 18.4484 24.8784C18.606 24.8577 18.7171 24.713 18.6963 24.5553C18.6755 24.3976 18.5309 24.2866 18.3732 24.3073Z" fill="#000088"/>
<path d="M22.5142 18.4545L23.1984 21.7497L23.7979 23.2455L23.5693 21.6503L22.5142 18.4545Z" fill="#000088"/>
<path d="M24.3073 29.6263C24.3281 29.784 24.4728 29.895 24.6305 29.8743C24.7882 29.8535 24.8992 29.7089 24.8784 29.5512C24.8577 29.3935 24.713 29.2825 24.5553 29.3032C24.3976 29.324 24.2866 29.4686 24.3073 29.6263Z" fill="#000088"/>
<path d="M18.455 25.4853L21.7502 24.8011L23.246 24.2016L21.6508 24.4302L18.455 25.4853Z" fill="#000088"/>
<path d="M29.2848 22.1246C29.4318 22.0637 29.5016 21.8952 29.4407 21.7483C29.3798 21.6013 29.2114 21.5316 29.0644 21.5924C28.9175 21.6533 28.8477 21.8218 28.9086 21.9687C28.9694 22.1157 29.1379 22.1854 29.2848 22.1246Z" fill="#000088"/>
<path d="M26.7996 28.8494L25.2859 25.8435L24.3196 24.5539L24.9533 26.0355L26.7996 28.8494Z" fill="#000088"/>
<path d="M22.2462 18.6444C22.1853 18.4974 22.0168 18.4276 21.8699 18.4885C21.7229 18.5494 21.6531 18.7178 21.714 18.8648C21.7749 19.0117 21.9433 19.0815 22.0903 19.0206C22.2372 18.9598 22.307 18.7913 22.2462 18.6444Z" fill="#000088"/>
<path d="M28.9715 21.1296L25.9656 22.6433L24.676 23.6096L26.1576 22.9759L28.9715 21.1296Z" fill="#000088"/>
<path d="M18.6444 25.7529C18.4974 25.8137 18.4276 25.9822 18.4885 26.1292C18.5494 26.2761 18.7178 26.3459 18.8648 26.285C19.0117 26.2241 19.0815 26.0557 19.0206 25.9087C18.9598 25.7618 18.7913 25.692 18.6444 25.7529Z" fill="#000088"/>
<path d="M21.1296 19.0281L22.6433 22.0339L23.6096 23.3235L22.9759 21.8419L21.1296 19.0281Z" fill="#000088"/>
<path d="M25.7529 29.3552C25.8137 29.5021 25.9822 29.5719 26.1292 29.511C26.2761 29.4502 26.3459 29.2817 26.285 29.1347C26.2241 28.9878 26.0557 28.918 25.9087 28.9789C25.7618 29.0397 25.692 29.2082 25.7529 29.3552Z" fill="#000088"/>
<path d="M19.0281 26.8699L22.0339 25.3562L23.3235 24.3899L21.8419 25.0236L19.0281 26.8699Z" fill="#000088"/>
<path d="M28.6197 20.8217C28.7458 20.7249 28.7696 20.5441 28.6728 20.4179C28.576 20.2917 28.3952 20.2679 28.269 20.3647C28.1428 20.4615 28.119 20.6423 28.2159 20.7685C28.3127 20.8947 28.4935 20.9185 28.6197 20.8217Z" fill="#000088"/>
<path d="M27.9599 27.9603L25.7198 25.4487L24.4527 24.4531L25.4483 25.7202L27.9599 27.9603Z" fill="#000088"/>
<path d="M20.9203 19.2817C20.8235 19.1555 20.6427 19.1317 20.5165 19.2285C20.3903 19.3254 20.3665 19.5062 20.4633 19.6324C20.5602 19.7585 20.741 19.7823 20.8672 19.6855C20.9933 19.5887 21.0171 19.4079 20.9203 19.2817Z" fill="#000088"/>
<path d="M28.0595 19.9415L25.5478 22.1816L24.5522 23.4487L25.8194 22.4531L28.0595 19.9415Z" fill="#000088"/>
<path d="M19.2812 27.0802C19.155 27.177 19.1312 27.3578 19.2281 27.484C19.3249 27.6102 19.5057 27.634 19.6319 27.5371C19.7581 27.4403 19.7819 27.2595 19.685 27.1333C19.5882 27.0071 19.4074 26.9833 19.2812 27.0802Z" fill="#000088"/>
<path d="M19.941 19.9415L22.1811 22.4531L23.4482 23.4488L22.4526 22.1816L19.941 19.9415Z" fill="#000088"/>
<path d="M27.0797 28.7193C27.1765 28.8455 27.3573 28.8693 27.4835 28.7724C27.6097 28.6756 27.6335 28.4948 27.5367 28.3686C27.4398 28.2424 27.259 28.2186 27.1328 28.3155C27.0067 28.4123 26.9829 28.5931 27.0797 28.7193Z" fill="#000088"/>
<path d="M19.941 28.0595L22.4527 25.8194L23.4483 24.5523L22.1811 25.5479L19.941 28.0595Z" fill="#000088"/>
<path d="M27.6391 19.7335C27.736 19.6073 27.7122 19.4265 27.586 19.3297C27.4598 19.2329 27.279 19.2567 27.1822 19.3828C27.0853 19.509 27.1091 19.6898 27.2353 19.7867C27.3615 19.8835 27.5423 19.8597 27.6391 19.7335Z" fill="#000088"/>
<path d="M28.8495 26.7996L26.0356 24.9533L24.554 24.3196L25.8436 25.2858L28.8495 26.7996Z" fill="#000088"/>
<path d="M19.8038 20.2388C19.6776 20.142 19.4968 20.1658 19.4 20.292C19.3032 20.4182 19.327 20.5989 19.4532 20.6958C19.5793 20.7926 19.7601 20.7688 19.857 20.6426C19.9538 20.5164 19.93 20.3356 19.8038 20.2388Z" fill="#000088"/>
<path d="M26.8699 19.0284L25.0236 21.8423L24.3899 23.3239L25.3562 22.0343L26.8699 19.0284Z" fill="#000088"/>
<path d="M20.2388 28.1957C20.142 28.3219 20.1658 28.5027 20.292 28.5995C20.4182 28.6963 20.5989 28.6725 20.6958 28.5464C20.7926 28.4202 20.7688 28.2394 20.6426 28.1425C20.5164 28.0457 20.3356 28.0695 20.2388 28.1957Z" fill="#000088"/>
<path d="M19.0284 21.1296L21.8423 22.9759L23.3239 23.6096L22.0343 22.6434L19.0284 21.1296Z" fill="#000088"/>
<path d="M28.1957 27.7607C28.3219 27.8575 28.5027 27.8337 28.5995 27.7075C28.6963 27.5814 28.6725 27.4006 28.5464 27.3037C28.4202 27.2069 28.2394 27.2307 28.1425 27.3569C28.0457 27.4831 28.0695 27.6639 28.1957 27.7607Z" fill="#000088"/>
<path d="M21.1296 28.9711L22.9759 26.1572L23.6096 24.6756L22.6434 25.9652L21.1296 28.9711Z" fill="#000088"/>
<path d="M26.4109 18.9373C26.4718 18.7903 26.402 18.6218 26.2551 18.561C26.1081 18.5001 25.9396 18.5699 25.8788 18.7168C25.8179 18.8638 25.8877 19.0323 26.0346 19.0931C26.1816 19.154 26.3501 19.0842 26.4109 18.9373Z" fill="#000088"/>
<path d="M29.409 25.4494L26.2132 24.3943L24.6181 24.1656L26.1138 24.7652L29.409 25.4494Z" fill="#000088"/>
<path d="M18.9734 21.4528C18.8264 21.392 18.658 21.4618 18.5971 21.6087C18.5362 21.7557 18.606 21.9241 18.753 21.985C18.8999 22.0459 19.0684 21.9761 19.1293 21.8291C19.1901 21.6822 19.1203 21.5137 18.9734 21.4528Z" fill="#000088"/>
<path d="M25.4855 18.4547L24.4304 21.6505L24.2017 23.2457L24.8013 21.7499L25.4855 18.4547Z" fill="#000088"/>
<path d="M21.4528 29.0266C21.392 29.1736 21.4618 29.342 21.6087 29.4029C21.7557 29.4638 21.9241 29.394 21.985 29.247C22.0459 29.1001 21.9761 28.9316 21.8291 28.8707C21.6822 28.8099 21.5137 28.8797 21.4528 29.0266Z" fill="#000088"/>
<path d="M18.4547 22.514L21.6505 23.5691L23.2457 23.7978L21.7499 23.1982L18.4547 22.514Z" fill="#000088"/>
<path d="M29.0261 26.5467C29.1731 26.6075 29.3415 26.5377 29.4024 26.3908C29.4633 26.2438 29.3935 26.0754 29.2465 26.0145C29.0996 25.9536 28.9311 26.0234 28.8703 26.1704C28.8094 26.3173 28.8792 26.4858 29.0261 26.5467Z" fill="#000088"/>
<path d="M22.514 29.5448L23.5691 26.349L23.7978 24.7538L23.1982 26.2496L22.514 29.5448Z" fill="#000088"/>
<path d="M23.9999 25.1194C24.6184 25.1194 25.1199 24.618 25.1199 23.9994C25.1199 23.3808 24.6184 22.8794 23.9999 22.8794C23.3813 22.8794 22.8799 23.3808 22.8799 23.9994C22.8799 24.618 23.3813 25.1194 23.9999 25.1194Z" fill="#000088"/>
</g>
<defs>
<clipPath id="clip0_3785_7272">
<path d="M0 24C0 10.7452 10.7452 0 24 0C37.2548 0 48 10.7452 48 24C48 37.2548 37.2548 48 24 48C10.7452 48 0 37.2548 0 24Z" fill="white"/>
</clipPath>
</defs>
</svg>
