<svg width="48" height="48" viewBox="0 0 48 48" fill="none" xmlns="http://www.w3.org/2000/svg">
<g clip-path="url(#clip0_3785_7268)">
<path d="M0 0H48V48H0V0Z" fill="#00008B"/>
<path d="M24 0V3L15.0938 12L24 20.7656V24H20.8594L11.9062 15.1875L3.1875 24H0V20.8125L8.71875 12.0469L0 3.46875V0H2.90625L11.9062 8.8125L20.625 0H24Z" fill="white"/>
<path d="M8.625 15.1875L9.14062 16.7812L1.96875 24H0V23.8594L8.625 15.1875ZM14.4375 14.625L16.9688 15L24 21.8906V24L14.4375 14.625ZM24 0L15 9.1875L14.8125 7.125L21.8438 0H24ZM0 0.046875L9.04688 8.90625L6.28125 8.53125L0 2.29688V0.046875Z" fill="#C8102E"/>
<path d="M8.25 0V24H15.75V0H8.25ZM0 8.25V15.75H24V8.25H0Z" fill="white"/>
<path d="M0 9.75V14.25H24V9.75H0ZM9.75 0V24H14.25V0H9.75Z" fill="#C8102E"/>
<path d="M36.605 10.3247L36.6392 10.4282H39.0103L37.1802 11.7583L37.0913 11.8228L37.1255 11.9263L37.8237 14.0776L35.9937 12.7476L35.9058 12.6841L35.8179 12.7476L33.9868 14.0776L34.686 11.9263L34.7202 11.8228L34.6313 11.7583L32.8013 10.4282H35.1724L35.2065 10.3247L35.9058 8.17139L36.605 10.3247Z" fill="#C8102E" stroke="white" stroke-width="0.3"/>
<path d="M43.3555 17.8247L43.3896 17.9282H45.7607L43.9307 19.2583L43.8418 19.3228L43.876 19.4263L44.5742 21.5776L42.7441 20.2476L42.6562 20.1841L42.5684 20.2476L40.7373 21.5776L41.4365 19.4263L41.4707 19.3228L41.3818 19.2583L39.5518 17.9282H41.9229L41.957 17.8247L42.6562 15.6714L43.3555 17.8247Z" fill="#C8102E" stroke="white" stroke-width="0.3"/>
<path d="M29.855 19.6997L29.8892 19.8032H32.2603L30.4302 21.1333L30.3413 21.1978L30.3755 21.3013L31.0737 23.4526L29.2437 22.1226L29.1558 22.0591L29.0679 22.1226L27.2368 23.4526L27.936 21.3013L27.9702 21.1978L27.8813 21.1333L26.0513 19.8032H28.4224L28.4565 19.6997L29.1558 17.5464L29.855 19.6997Z" fill="#C8102E" stroke="white" stroke-width="0.3"/>
<path d="M36.605 35.2622L36.6392 35.3657H39.0103L37.1802 36.6958L37.0913 36.7603L37.1255 36.8638L37.8237 39.0151L35.9937 37.6851L35.9058 37.6216L35.8179 37.6851L33.9868 39.0151L34.686 36.8638L34.7202 36.7603L34.6313 36.6958L32.8013 35.3657H35.1724L35.2065 35.2622L35.9058 33.1089L36.605 35.2622Z" fill="#C8102E" stroke="white" stroke-width="0.3"/>
</g>
<defs>
<clipPath id="clip0_3785_7268">
<rect width="48" height="48" rx="24" fill="white"/>
</clipPath>
</defs>
</svg>
