<svg width="48" height="48" viewBox="0 0 48 48" fill="none" xmlns="http://www.w3.org/2000/svg">
<g clip-path="url(#clip0_3785_7265)">
<path fill-rule="evenodd" clip-rule="evenodd" d="M0 0H91.2009V3.69234H0V0ZM0 7.38469H91.2009V11.077H0V7.38469ZM0 14.7694H91.2009V18.4617H0V14.7694ZM0 22.1541H91.2009V25.8464H0V22.1541ZM0 29.5387H91.2009V33.2311H0V29.5387ZM0 36.9234H91.2009V40.6158H0V36.9234ZM0 44.3081H91.2009V48.0005H0V44.3081Z" fill="#BD3D44"/>
<path fill-rule="evenodd" clip-rule="evenodd" d="M0 3.69238H91.2009V7.38473H0V3.69238ZM0 11.0771H91.2009V14.7694H0V11.0771ZM0 18.4618H91.2009V22.1541H0V18.4618ZM0 25.8464H91.2009V29.5388H0V25.8464ZM0 33.2311H91.2009V36.9235H0V33.2311ZM0 40.6158H91.2009V44.3082H0V40.6158Z" fill="white"/>
<path fill-rule="evenodd" clip-rule="evenodd" d="M0 0H36.4804V25.8464H0V0Z" fill="#192F5D"/>
<path fill-rule="evenodd" clip-rule="evenodd" d="M3.02779 1.10791L3.39702 2.14177H4.43088L3.58164 2.76946L3.91395 3.7664L3.02779 3.1387L2.21547 3.7664L2.54778 2.76946L1.66162 2.14177H2.76932L3.02779 1.10791ZM9.12016 1.10791L9.45247 2.14177H10.5232L9.63708 2.76946L10.0063 3.7664L9.12016 3.1387L8.23399 3.7664L8.60323 2.76946L7.71706 2.14177H8.78784L9.12016 1.10791ZM15.2125 1.10791L15.5448 2.14177H16.6156L15.7294 2.76946L16.0987 3.7664L15.2125 3.1387L14.3264 3.7664L14.6956 2.76946L13.8094 2.14177H14.8802L15.2125 1.10791ZM21.268 1.10791L21.6372 2.14177H22.6711L21.8218 2.76946L22.1541 3.7664L21.268 3.1387L20.4187 3.7664L20.751 2.76946L19.8649 2.14177H20.9726L21.268 1.10791ZM27.3603 1.10791L27.6926 2.14177H28.7634L27.8773 2.76946L28.2465 3.7664L27.3234 3.1387L26.4742 3.7664L26.8065 2.76946L25.9203 2.14177H26.9911L27.3603 1.10791ZM33.4527 1.10791L33.785 2.14177H34.8558L33.9696 2.76946L34.3389 3.7664L33.4527 3.1387L32.5665 3.7664L32.9358 2.76946L32.0496 2.14177H33.1204L33.4527 1.10791ZM6.09243 3.69255L6.42474 4.72641H7.49552L6.60936 5.35411L6.9786 6.35104L6.09243 5.72334L5.20627 6.35104L5.57551 5.35411L4.68934 4.72641H5.76012L6.09243 3.69255ZM12.1479 3.69255L12.5171 4.72641H13.551L12.7017 5.35411L13.034 6.35104L12.1479 5.72334L11.2986 6.35104L11.6309 5.35411L10.7448 4.72641H11.8525L12.1479 3.69255ZM18.2402 3.69255L18.5726 4.72641H19.6433L18.7572 5.35411L19.1264 6.35104L18.2402 5.72334L17.3541 6.35104L17.7233 5.35411L16.8372 4.72641H17.9079L18.2402 3.69255ZM24.3326 3.69255L24.6649 4.72641H25.7357L24.8495 5.35411L25.2188 6.35104L24.3326 5.72334L23.4464 6.35104L23.8157 5.35411L22.9295 4.72641H24.0003L24.3326 3.69255ZM30.3881 3.69255L30.7573 4.72641H31.7542L30.905 5.35411L31.2373 6.35104L30.3511 5.72334L29.5019 6.35104L29.8342 5.35411L28.948 4.72641H30.0557L30.3881 3.69255ZM3.06471 6.27719L3.3601 7.31105H4.4678L3.58164 7.93875L3.91395 8.93568L3.02779 8.30798L2.21547 8.93568L2.54778 7.93875L1.66162 7.31105H2.76932L3.06471 6.27719ZM9.12016 6.27719L9.45247 7.31105H10.5232L9.67401 7.93875L10.0063 8.93568L9.12016 8.30798L8.27092 8.93568L8.60323 7.93875L7.71706 7.31105H8.78784L9.12016 6.27719ZM15.2125 6.27719L15.5448 7.31105H16.6156L15.7294 7.93875L16.0987 8.93568L15.2125 8.30798L14.3264 8.93568L14.6956 7.93875L13.8094 7.31105H14.8802L15.2125 6.27719ZM21.268 6.27719L21.6372 7.31105H22.6711L21.8218 7.93875L22.1541 8.93568L21.268 8.30798L20.4187 8.93568L20.751 7.93875L19.8649 7.31105H20.9726L21.268 6.27719ZM27.3603 6.27719L27.6926 7.31105H28.7634L27.9142 7.93875L28.2465 8.93568L27.3603 8.30798L26.5111 8.93568L26.8434 7.93875L25.9572 7.31105H27.028L27.3603 6.27719ZM33.4527 6.27719L33.785 7.31105H34.8558L33.9696 7.93875L34.3389 8.93568L33.4527 8.30798L32.5665 8.93568L32.9358 7.93875L32.0496 7.31105H33.1204L33.4527 6.27719ZM6.09243 8.86183L6.42474 9.89569H7.49552L6.60936 10.5234L6.9786 11.5203L6.09243 10.8926L5.20627 11.5203L5.57551 10.5234L4.68934 9.89569H5.76012L6.09243 8.86183ZM12.1479 8.86183L12.5171 9.89569H13.551L12.7017 10.5234L13.034 11.5203L12.1479 10.8926L11.2986 11.5203L11.6309 10.5234L10.7448 9.89569H11.8525L12.1479 8.86183ZM18.2402 8.86183L18.5726 9.89569H19.6433L18.7941 10.5234L19.1264 11.5203L18.2402 10.8926L17.391 11.5203L17.7233 10.5234L16.8372 9.89569H17.9079L18.2402 8.86183ZM24.3326 8.86183L24.6649 9.89569H25.7357L24.8495 10.5234L25.2188 11.5203L24.3326 10.8926L23.4464 11.5203L23.8157 10.5234L22.9295 9.89569H24.0003L24.3326 8.86183ZM30.3881 8.86183L30.7573 9.89569H31.7542L30.905 10.5234L31.2373 11.5203L30.3511 10.8926L29.5019 11.5203L29.8342 10.5234L28.948 9.89569H30.0557L30.3881 8.86183ZM3.06471 11.4465L3.3601 12.4803H4.4678L3.58164 13.108L3.91395 14.105L3.02779 13.4773L2.21547 14.105L2.54778 13.108L1.66162 12.4803H2.76932L3.06471 11.4465ZM9.12016 11.4465L9.45247 12.4803H10.5232L9.67401 13.108L10.0063 14.105L9.12016 13.4773L8.27092 14.105L8.60323 13.108L7.71706 12.4803H8.78784L9.12016 11.4465ZM15.2125 11.4465L15.5448 12.4803H16.6156L15.7294 13.108L16.0987 14.105L15.2125 13.4773L14.3264 14.105L14.6956 13.108L13.8094 12.4803H14.8802L15.2125 11.4465ZM21.268 11.4465L21.6372 12.4803H22.6711L21.8218 13.108L22.1541 14.105L21.268 13.4773L20.4187 14.105L20.751 13.108L19.8649 12.4803H20.9726L21.268 11.4465ZM27.3603 11.4465L27.6926 12.4803H28.7634L27.9142 13.108L28.2465 14.105L27.3603 13.4773L26.5111 14.105L26.8434 13.108L25.9572 12.4803H27.028L27.3603 11.4465ZM33.4527 11.4465L33.785 12.4803H34.8558L33.9696 13.108L34.3389 14.105L33.4527 13.4773L32.5665 14.105L32.9358 13.108L32.0496 12.4803H33.1204L33.4527 11.4465ZM6.09243 14.0311L6.42474 15.065H7.49552L6.60936 15.6927L6.9786 16.6896L6.09243 16.0619L5.20627 16.6896L5.57551 15.6927L4.68934 15.065H5.76012L6.09243 14.0311ZM12.1479 14.0311L12.5171 15.065H13.551L12.7017 15.6927L13.034 16.6896L12.1479 16.0619L11.2986 16.6896L11.6309 15.6927L10.7448 15.065H11.8525L12.1479 14.0311ZM18.2402 14.0311L18.5726 15.065H19.6433L18.7941 15.6927L19.1264 16.6896L18.2402 16.0619L17.391 16.6896L17.7233 15.6927L16.8372 15.065H17.9079L18.2402 14.0311ZM24.3326 14.0311L24.6649 15.065H25.7357L24.8495 15.6927L25.2188 16.6896L24.3326 16.0619L23.4464 16.6896L23.8157 15.6927L22.9295 15.065H24.0003L24.3326 14.0311ZM30.3881 14.0311L30.7573 15.065H31.7542L30.905 15.6927L31.2373 16.6896L30.3511 16.0619L29.5019 16.6896L29.8342 15.6927L28.948 15.065H30.0557L30.3881 14.0311ZM3.06471 16.6158L3.3601 17.6496H4.4678L3.58164 18.2773L3.91395 19.2742L3.02779 18.6465L2.21547 19.2742L2.54778 18.2773L1.66162 17.6496H2.76932L3.06471 16.6158ZM9.12016 16.6158L9.45247 17.6496H10.5232L9.67401 18.2773L10.0063 19.2742L9.12016 18.6465L8.27092 19.2742L8.60323 18.2773L7.71706 17.6496H8.78784L9.12016 16.6158ZM15.2125 16.6158L15.5448 17.6496H16.6156L15.7294 18.2773L16.0987 19.2742L15.2125 18.6465L14.3264 19.2742L14.6956 18.2773L13.8094 17.6496H14.8802L15.2125 16.6158ZM21.268 16.6158L21.6372 17.6496H22.6711L21.8218 18.2773L22.1541 19.2742L21.268 18.6465L20.4187 19.2742L20.751 18.2773L19.8649 17.6496H20.9726L21.268 16.6158ZM27.3603 16.6158L27.6926 17.6496H28.7634L27.9142 18.2773L28.2465 19.2742L27.3603 18.6465L26.5111 19.2742L26.8434 18.2773L25.9572 17.6496H27.028L27.3603 16.6158ZM33.4527 16.6158L33.785 17.6496H34.8558L33.9696 18.2773L34.3389 19.2742L33.4527 18.6465L32.5665 19.2742L32.9358 18.2773L32.0496 17.6496H33.1204L33.4527 16.6158ZM6.09243 19.2004L6.42474 20.2343H7.49552L6.60936 20.8619L6.9786 21.8589L6.09243 21.2312L5.20627 21.8589L5.57551 20.8619L4.68934 20.2343H5.76012L6.09243 19.2004ZM12.1479 19.2004L12.5171 20.2343H13.551L12.7017 20.8619L13.034 21.8589L12.1479 21.2312L11.2986 21.8589L11.6309 20.8619L10.7448 20.2343H11.8525L12.1479 19.2004ZM18.2402 19.2004L18.5726 20.2343H19.6433L18.7941 20.8619L19.1264 21.8589L18.2402 21.2312L17.391 21.8589L17.7233 20.8619L16.8372 20.2343H17.9079L18.2402 19.2004ZM24.3326 19.2004L24.6649 20.2343H25.7357L24.8495 20.8619L25.2188 21.8589L24.3326 21.2312L23.4464 21.8589L23.8157 20.8619L22.9295 20.2343H24.0003L24.3326 19.2004ZM30.3881 19.2004L30.7573 20.2343H31.7542L30.905 20.8619L31.2373 21.8589L30.3511 21.2312L29.5019 21.8589L29.8342 20.8619L28.948 20.2343H30.0557L30.3881 19.2004ZM3.06471 21.785L3.3601 22.8189H4.4678L3.58164 23.4466L3.91395 24.4435L3.02779 23.8158L2.21547 24.4435L2.54778 23.4466L1.66162 22.8189H2.76932L3.06471 21.785ZM9.12016 21.785L9.45247 22.8189H10.5232L9.67401 23.4466L10.0063 24.4435L9.12016 23.8158L8.27092 24.4435L8.60323 23.4466L7.71706 22.8189H8.78784L9.12016 21.785ZM15.2125 21.785L15.5448 22.8189H16.6156L15.7294 23.4466L16.0987 24.4435L15.2125 23.8158L14.3264 24.4435L14.6956 23.4466L13.8094 22.8189H14.8802L15.2125 21.785ZM21.268 21.785L21.6372 22.8189H22.6711L21.8218 23.4466L22.1541 24.4435L21.268 23.8158L20.4187 24.4435L20.751 23.4466L19.8649 22.8189H20.9726L21.268 21.785ZM27.3603 21.785L27.6926 22.8189H28.7634L27.9142 23.4466L28.2465 24.4435L27.3603 23.8158L26.5111 24.4435L26.8434 23.4466L25.9572 22.8189H27.028L27.3603 21.785ZM33.4527 21.785L33.785 22.8189H34.8558L33.9696 23.4466L34.3389 24.4435L33.4527 23.8158L32.5665 24.4435L32.9358 23.4466L32.0496 22.8189H33.1204L33.4527 21.785Z" fill="white"/>
</g>
<defs>
<clipPath id="clip0_3785_7265">
<rect width="48" height="48" rx="24" fill="white"/>
</clipPath>
</defs>
</svg>
