<svg width="200" height="120" viewBox="0 0 200 120" xmlns="http://www.w3.org/2000/svg"><g fill="none" fill-rule="evenodd"><path fill="#13A8E0" d="M0 0h200v120H0z"/><path d="m18.412 43.03-3.833-9.658-3.812 9.659zm84.445-3.845c-.77.483-1.68.499-2.77.499h-6.804v-5.382h6.897c.975 0 1.994.046 2.655.437.727.353 1.176 1.105 1.176 2.142 0 1.06-.427 1.911-1.154 2.304m48.536 3.846-3.876-9.659-3.854 9.659zM60.919 53.485h-5.74l-.022-18.975-8.121 18.975h-4.917l-8.142-18.992v18.992H22.586l-2.152-5.404H8.774l-2.175 5.404H.517l10.029-24.228h8.32l9.526 22.939V29.257h9.14l7.33 16.436 6.732-16.436h9.325zm22.883 0H65.093V29.257h18.71v5.045h-13.11v4.367h12.794v4.967H70.694v4.838h13.108zm26.379-17.703c0 3.863-2.493 5.859-3.946 6.458 1.225.482 2.272 1.334 2.77 2.04.79 1.205.927 2.282.927 4.446v4.76h-5.649l-.02-3.056c0-1.458.134-3.555-.885-4.72-.818-.852-2.066-1.037-4.082-1.037h-6.012v8.812h-5.6V29.257h12.881c2.863 0 4.971.078 6.782 1.16 1.772 1.083 2.834 2.663 2.834 5.365m8.962 17.703h-5.714V29.257h5.714zm66.296 0h-7.937l-10.615-18.184v18.184H155.48l-2.18-5.404h-11.633l-2.115 5.404H133c-2.722 0-6.169-.623-8.12-2.68-1.969-2.057-2.993-4.843-2.993-9.249 0-3.593.612-6.878 3.019-9.474 1.81-1.933 4.646-2.825 8.505-2.825h5.422v5.192h-5.308c-2.044 0-3.198.314-4.31 1.435-.954 1.02-1.61 2.948-1.61 5.488 0 2.596.5 4.467 1.54 5.69.863.958 2.43 1.25 3.904 1.25h2.515l7.893-19.054h8.392l9.482 22.916V29.258h8.527l9.844 16.873V29.258h5.737zM.45 58.244h9.57l2.157-5.382h4.83l2.152 5.382h18.828V54.13l1.68 4.131h9.774l1.681-4.193v4.176h46.79l-.022-8.834h.905c.634.023.82.084.82 1.166v7.668h24.2v-2.057c1.951 1.082 4.988 2.057 8.983 2.057h10.18l2.18-5.382h4.83l2.13 5.382h19.62v-5.112l2.97 5.112h15.722v-33.79h-15.559v3.99l-2.179-3.99h-15.965v3.99l-2-3.99h-21.566c-3.61 0-6.783.52-9.346 1.972v-1.973h-14.882v1.973c-1.631-1.496-3.853-1.973-6.325-1.973h-54.37l-3.647 8.728-3.746-8.728H23.719v3.99l-1.879-3.989H7.232L.451 40.52zm199.256 17.871h-10.207c-1.02 0-1.696.04-2.266.438-.591.392-.819.974-.819 1.743 0 .914.5 1.536 1.225 1.805.59.213 1.225.275 2.158.275l3.036.084c3.062.078 5.107.623 6.354 1.95.226.185.363.393.519.6zm0 15.977c-1.36 2.057-4.011 3.1-7.6 3.1H181.29v-5.197h10.772c1.069 0 1.816-.145 2.267-.6.39-.375.662-.92.662-1.58 0-.706-.272-1.267-.684-1.603-.407-.37-.998-.538-1.973-.538-5.26-.185-11.82.168-11.82-7.5 0-3.516 2.159-7.215 8.036-7.215h11.156v-4.822h-10.365c-3.128 0-5.4.774-7.01 1.979v-1.98h-15.33c-2.452 0-5.33.63-6.69 1.98v-1.98h-27.377v1.98c-2.18-1.625-5.856-1.98-7.552-1.98h-18.058v1.98c-1.724-1.726-5.557-1.98-7.894-1.98H79.22l-4.624 5.176-4.332-5.175h-30.19V99.95h29.622l4.765-5.257 4.49 5.257 18.258.017v-7.955h1.795c2.423.04 5.28-.062 7.8-1.189v9.126h15.061v-8.813h.727c.927 0 1.018.04 1.018.998v7.815h45.75c2.904 0 5.94-.77 7.622-2.164v2.164h14.511c3.02 0 5.97-.438 8.213-1.56zm-22.34-9.682c1.09 1.167 1.675 2.64 1.675 5.135 0 5.213-3.15 7.647-8.798 7.647h-10.908v-5.197h10.864c1.062 0 1.816-.145 2.288-.6.385-.375.661-.92.661-1.58 0-.706-.299-1.267-.683-1.603-.428-.37-1.02-.538-1.994-.538-5.238-.185-11.797.168-11.797-7.5 0-3.516 2.136-7.215 8.007-7.215h11.228v5.157h-10.274c-1.018 0-1.68.04-2.243.438-.614.392-.841.975-.841 1.744 0 .914.52 1.536 1.225 1.805.59.212 1.225.274 2.18.274l3.014.084c3.04.077 5.128.62 6.396 1.95m-50.536-1.496c-.749.46-1.675.499-2.765.499h-6.804V75.97h6.897c.997 0 1.995.022 2.672.438.726.392 1.16 1.143 1.16 2.18s-.434 1.872-1.16 2.326m3.383 3.016c1.246.475 2.265 1.328 2.743 2.034.791 1.183.905 2.287.928 4.423v4.805h-5.623V92.16c0-1.458.136-3.617-.905-4.744-.818-.868-2.066-1.076-4.109-1.076h-5.985v8.852h-5.627V70.958h12.93c2.835 0 4.9.13 6.738 1.143 1.768 1.105 2.88 2.617 2.88 5.382-.001 3.868-2.496 5.842-3.97 6.447m7.075-12.972h18.692v5.011h-13.115v4.406h12.794v4.945h-12.794v4.821l13.115.022v5.029h-18.692zM99.502 82.14h-7.238v-6.17h7.303c2.022 0 3.425.851 3.425 2.97 0 2.096-1.338 3.2-3.49 3.2M86.686 92.988l-8.598-9.872 8.598-9.557zM64.481 90.14H50.71v-4.82h12.295v-4.945H50.711V75.97h14.04l6.127 7.063zm44.524-11.2c0 6.732-4.857 8.122-9.753 8.122h-6.988v8.129H81.38l-6.896-8.023-7.167 8.023H45.132V70.958h22.525l6.89 7.943 7.124-7.943h17.896c4.444 0 9.438 1.272 9.438 7.983" fill="#FFF" fill-rule="nonzero"/></g></svg>