<svg xmlns="http://www.w3.org/2000/svg" width="25" height="24" viewBox="0 0 25 24" fill="none"><path d="M4.5 18v-7m4 7v-7m4 7v-7m4 7v-7m4 7v-7" stroke="#F59C53" stroke-width="1.5" stroke-miterlimit="10" stroke-linecap="round" stroke-linejoin="round"/><path d="m12.87 2.15 9 3.6c.35.14.63.56.63.93V10c0 .55-.45 1-1 1h-18c-.55 0-1-.45-1-1V6.68c0-.37.28-.79.63-.93l9-3.6c.2-.08.54-.08.74 0M22.5 22h-20v-3c0-.55.45-1 1-1h18c.55 0 1 .45 1 1zm-21 0h22" stroke="#fff" stroke-width="1.5" stroke-miterlimit="10" stroke-linecap="round" stroke-linejoin="round"/><path d="M12.5 8.5a1.5 1.5 0 1 0 0-3 1.5 1.5 0 0 0 0 3" stroke="#F59C53" stroke-width="1.5" stroke-miterlimit="10" stroke-linecap="round" stroke-linejoin="round"/></svg>