<svg xmlns="http://www.w3.org/2000/svg" width="32" height="32" viewBox="0 0 32 32" fill="none"><path d="M3.586 8.94a1 1 0 1 0-1.839.787zm17.197 8.832-.366-.931zm9.47-8.045a1 1 0 1 0-1.839-.788zm-4.92 5.111-.684-.729zM16 17.667c-4.299 0-7.385-2.14-9.434-4.348a18.2 18.2 0 0 1-2.27-3.039 16 16 0 0 1-.674-1.261l-.03-.065-.006-.014v-.002l-.92.395c-.919.394-.918.395-.918.395v.001l.002.003a2 2 0 0 0 .056.125q.054.117.156.325c.138.274.342.66.616 1.121.548.92 1.38 2.147 2.523 3.377 2.284 2.46 5.864 4.987 10.899 4.987zm4.417-.826a12 12 0 0 1-4.417.826v2a14 14 0 0 0 5.15-.965zm8.916-7.508-.918-.394q0-.001 0 0l-.002.002-.008.018-.037.083q-.053.114-.165.335a17.7 17.7 0 0 1-3.554 4.732l1.369 1.459a19.7 19.7 0 0 0 3.967-5.282 13 13 0 0 0 .247-.511l.014-.032.004-.01.002-.004v-.001zM24.65 14.11c-1.145 1.075-2.55 2.07-4.232 2.732l.732 1.861c1.965-.773 3.58-1.925 4.869-3.135z" fill="#fff"/><path opacity=".5" d="M17 18.667a1 1 0 0 0-2 0zm4.621-1.44a1 1 0 0 0-1.676 1.09zm-9.566 1.09a1 1 0 0 0-1.676-1.09zm-3.56 1.805a1 1 0 1 0 1.677 1.09zm17.545-5.99a1 1 0 0 0-1.414 1.414zm.586 3.414a1 1 0 1 0 1.414-1.415zM15 22a1 1 0 1 0 2 0zm6.828-.788a1 1 0 0 0 1.677-1.09zM7.374 15.546a1 1 0 1 0-1.414-1.414zm-3.414.585a1 1 0 1 0 1.414 1.415zm6.419 1.095-1.884 2.896 1.677 1.09 1.883-2.895zm14.247-1.68 2 2 1.414-1.415-2-2zM15 18.666V22h2v-3.333zm4.945-.349 1.883 2.895 1.677-1.09-1.884-2.896zM5.96 14.132l-2 2 1.414 1.414 2-2z" fill="#fff"/></svg>