<svg xmlns="http://www.w3.org/2000/svg" width="32" height="32" viewBox="0 0 32 32" fill="none"><path d="M8 25.333a4 4 0 0 1-4-4v-8C4 8.305 4 5.791 5.562 4.23s4.076-1.562 9.105-1.562H20a4 4 0 0 1 4 4" stroke="#F59C53" stroke-width="2"/><path d="M8 14.667c0-3.772 0-5.657 1.172-6.829S12.229 6.667 16 6.667h4c3.771 0 5.657 0 6.828 1.171S28 10.895 28 14.667v6.666c0 3.772 0 5.657-1.172 6.829S23.771 29.333 20 29.333h-4c-3.771 0-5.657 0-6.828-1.171S8 25.105 8 21.333z" stroke="#fff" stroke-width="2"/></svg>