<svg xmlns="http://www.w3.org/2000/svg" width="32" height="32" viewBox="0 0 32 32" fill="none"><path d="M24.889 16c2.513-.372 4.444-2.606 4.444-5.306 0-2.96-2.321-5.36-5.185-5.36H7.852c-2.864 0-5.185 2.4-5.185 5.36 0 2.7 1.931 4.934 4.444 5.306" stroke="#F59C53" stroke-width="2"/><path d="M16 21.333V12m0 0-2.667 3.111M16 12l2.667 3.111" stroke="#fff" stroke-width="2" stroke-linecap="round" stroke-linejoin="round"/><path d="M6.667 24h18.666" stroke="#F59C53" stroke-width="2" stroke-linecap="round" stroke-linejoin="round"/><path d="M6.667 14.667c0-2.514 0-3.772.78-4.553.782-.78 2.039-.78 4.553-.78h8c2.514 0 3.771 0 4.552.78.781.781.781 2.038.781 4.553v8c0 2.514 0 3.77-.78 4.552C23.77 28 22.513 28 20 28h-8c-2.514 0-3.771 0-4.552-.781s-.781-2.038-.781-4.552z" stroke="#fff" stroke-width="2"/></svg>