<svg width="200" height="120" viewBox="0 0 200 120" xmlns="http://www.w3.org/2000/svg"><defs><linearGradient x1="21.823%" y1="9.063%" x2="85.561%" y2="80.499%" id="a"><stop stop-color="#F34F26" offset="0%"/><stop stop-color="#F69E35" offset="100%"/></linearGradient></defs><g fill="none" fill-rule="evenodd"><path fill="#F58220" d="M0 0h200v120H0z"/><path d="M13.861.119C6.367.119.286 6.219.286 13.747c0 8.004 5.817 13.987 13.575 13.987 7.565 0 13.538-6.062 13.538-13.83C27.4 6.183 21.466.119 13.861.119" fill="url(#a)" transform="translate(90.625 44)"/><path d="M104.486 44.119c-7.494 0-13.575 6.1-13.575 13.628 0 8.004 5.817 13.987 13.575 13.987 7.565 0 13.538-6.062 13.538-13.83.001-7.721-5.933-13.785-13.538-13.785" fill="#000" fill-rule="nonzero"/><path d="M27.42 44.616h-7.296v26.52h7.26c3.851 0 6.637-.951 9.08-3.06 2.9-2.506 4.62-6.283 4.62-10.187-.001-7.83-5.616-13.273-13.664-13.273m5.804 19.918c-1.569 1.475-3.589 2.112-6.8 2.112h-1.333v-17.54h1.333c3.211 0 5.154.598 6.8 2.147 1.718 1.59 2.742 4.054 2.742 6.598 0 2.549-1.024 5.098-2.742 6.683m10.15 6.602h4.96v-26.52h-4.96zm17.103-16.347c-2.981-1.151-3.858-1.91-3.858-3.337 0-1.671 1.562-2.942 3.702-2.942 1.489 0 2.71.635 4.012 2.142l2.592-3.533c-2.137-1.953-4.695-2.946-7.483-2.946-4.5 0-7.937 3.262-7.937 7.593 0 3.661 1.601 5.528 6.26 7.283 1.947.712 2.937 1.187 3.435 1.511.992.677 1.49 1.628 1.49 2.74 0 2.15-1.643 3.739-3.86 3.739-2.366 0-4.273-1.231-5.418-3.537l-3.203 3.224c2.286 3.495 5.035 5.05 8.817 5.05 5.153 0 8.777-3.583 8.777-8.711 0-4.216-1.676-6.126-7.326-8.276m8.89 3.1c0 7.802 5.88 13.845 13.44 13.845 2.136 0 3.968-.44 6.223-1.55v-6.087C87.042 66.167 85.286 67 83.033 67c-4.999 0-8.551-3.779-8.551-9.15 0-5.087 3.663-9.104 8.324-9.104 2.363 0 4.16.874 6.224 2.982V45.64c-2.176-1.15-3.973-1.622-6.11-1.622-7.521 0-13.553 6.165-13.553 13.87m59.891 4.54-6.795-17.811h-5.42l10.806 27.197h2.67l10.995-27.198h-5.381zm14.512 8.707h14.083v-4.49h-9.121v-7.163h8.772v-4.49h-8.772v-5.887h9.121v-4.489H143.77zm33.736-18.694c0-4.968-3.278-7.826-9.007-7.826h-7.368v26.52h4.967V60.477h.65l6.868 10.659h6.107l-8.02-11.171c3.746-.798 5.803-3.464 5.803-7.523m-9.963 4.38h-1.445v-8.036h1.524c3.099 0 4.778 1.356 4.778 3.937 0 2.662-1.679 4.1-4.857 4.1" fill="#0B1015" fill-rule="nonzero"/></g></svg>