<svg xmlns="http://www.w3.org/2000/svg" width="41" height="40" viewBox="0 0 41 40" fill="none"><path d="M3.834 20c0-6.285 0-9.428 1.952-11.38 1.953-1.953 5.095-1.953 11.38-1.953h6.668c6.285 0 9.428 0 11.38 1.952 1.953 1.953 1.953 5.096 1.953 11.381s0 9.428-1.953 11.38c-1.952 1.953-5.095 1.953-11.38 1.953h-6.667c-6.286 0-9.428 0-11.38-1.952C3.833 29.428 3.833 26.285 3.833 20Z" stroke="#fff" stroke-width="2"/><path d="M30.5 27.5h-20" stroke="#F59C53" stroke-width="2" stroke-linecap="round"/><path d="M30.5 21.667h-5" stroke="#fff" stroke-width="2" stroke-linecap="round"/><path d="M10.5 16.667c0-2.357 0-3.536.732-4.268s1.911-.732 4.268-.732 3.535 0 4.268.732.732 1.91.732 4.268 0 3.535-.732 4.267c-.733.733-1.911.733-4.268.733s-3.536 0-4.268-.733c-.732-.732-.732-1.91-.732-4.267Z" stroke="#F59C53" stroke-width="2"/></svg>