<svg xmlns="http://www.w3.org/2000/svg" width="24" height="24" viewBox="0 0 24 24" class="svg-main-icon"><g fill="none" fill-rule="evenodd"><path d="M0 0h24v24H0z"/><rect fill="#c34ecb" opacity=".3" x="11.5" y="2" width="2" height="4" rx="1"/><rect fill="#c34ecb" opacity=".3" x="11.5" y="16" width="2" height="5" rx="1"/><path d="M15.493 8.044a2.9 2.9 0 0 0-1.093-.846q-.675-.313-1.301-.313-.323 0-.655.057-.333.057-.599.218a1.5 1.5 0 0 0-.447.418q-.18.258-.18.656 0 .342.143.57t.417.399.656.314.855.294q.684.228 1.425.504a5.3 5.3 0 0 1 1.349.731q.608.456 1.007 1.13t.399 1.682q0 1.159-.428 2.005a4 4 0 0 1-1.149 1.396 4.9 4.9 0 0 1-1.653.817 7 7 0 0 1-1.919.266 7.9 7.9 0 0 1-2.793-.503q-1.35-.504-2.242-1.435l2.128-2.166q.494.607 1.301 1.017.808.408 1.606.408.36 0 .703-.076.342-.075.598-.247.258-.171.409-.456.152-.285.152-.684 0-.38-.19-.646a1.9 1.9 0 0 0-.542-.485 4.4 4.4 0 0 0-.873-.399 45 45 0 0 0-1.188-.389q-.646-.21-1.263-.494a4.2 4.2 0 0 1-1.102-.732 3.4 3.4 0 0 1-.78-1.082q-.294-.637-.294-1.549 0-1.12.456-1.919a4 4 0 0 1 1.197-1.311 5.1 5.1 0 0 1 1.672-.75 7.6 7.6 0 0 1 1.881-.238q1.14 0 2.327.418t2.081 1.235z" fill="#c34ecb"/></g></svg>