<svg xmlns="http://www.w3.org/2000/svg" width="33" height="32" viewBox="0 0 33 32" fill="none">
  <path d="M8.5 13.3333V10.6667C8.5 6.24839 12.0817 2.66667 16.5 2.66667C20.9183 2.66667 24.5 6.24839 24.5 10.6667V13.3333" stroke="white" stroke-width="2" stroke-linecap="round"/>
  <path d="M3.16669 21.3333C3.16669 17.5621 3.16669 15.6765 4.33826 14.5049C5.50983 13.3333 7.39545 13.3333 11.1667 13.3333H21.8334C25.6046 13.3333 27.4902 13.3333 28.6618 14.5049C29.8334 15.6765 29.8334 17.5621 29.8334 21.3333C29.8334 25.1046 29.8334 26.9902 28.6618 28.1618C27.4902 29.3333 25.6046 29.3333 21.8334 29.3333H11.1667C7.39545 29.3333 5.50983 29.3333 4.33826 28.1618C3.16669 26.9902 3.16669 25.1046 3.16669 21.3333Z" stroke="white" stroke-width="2"/>
  <circle cx="16.5" cy="21.3333" r="2.66667" stroke="#F59C53" stroke-width="2"/>
</svg>
