<svg xmlns="http://www.w3.org/2000/svg" width="26" height="26" viewBox="0 0 26 26" fill="none"><path d="M18.417 19.966h-4.334l-4.82 3.206a1.08 1.08 0 0 1-1.68-.899v-2.307c-3.25 0-5.416-2.167-5.416-5.417v-6.5c0-3.25 2.166-5.416 5.416-5.416h10.834c3.25 0 5.416 2.166 5.416 5.416v6.5c0 3.25-2.166 5.417-5.416 5.417" stroke="#FCFCFC" stroke-width="1.5" stroke-miterlimit="10" stroke-linecap="round" stroke-linejoin="round"/><path d="M13 12.307v-.228c0-.737.455-1.126.91-1.44.444-.304.888-.694.888-1.409 0-.997-.801-1.798-1.798-1.798s-1.798.801-1.798 1.798m1.793 5.666h.01" stroke="#F59C53" stroke-width="1.5" stroke-linecap="round" stroke-linejoin="round"/></svg>