<svg xmlns="http://www.w3.org/2000/svg" width="26" height="26" viewBox="0 0 26 26" fill="none"><path d="M22.837 9.295v7.41a3.44 3.44 0 0 1-1.701 2.958l-6.435 3.715a3.43 3.43 0 0 1-3.412 0l-6.435-3.715a3.41 3.41 0 0 1-1.701-2.958v-7.41c0-1.213.65-2.34 1.7-2.958l6.436-3.715a3.43 3.43 0 0 1 3.412 0l6.435 3.715a3.43 3.43 0 0 1 1.7 2.958" stroke="#FCFCFC" stroke-width="1.5" stroke-linecap="round" stroke-linejoin="round"/><path d="M13 11.917a2.524 2.524 0 1 0 0-5.049 2.524 2.524 0 0 0 0 5.049m4.333 6.131c0-1.95-1.939-3.531-4.333-3.531s-4.333 1.581-4.333 3.531" stroke="#F59C53" stroke-width="1.5" stroke-linecap="round" stroke-linejoin="round"/></svg>