<svg width="200" height="120" viewBox="0 0 200 120" xmlns="http://www.w3.org/2000/svg"><g fill="none" fill-rule="evenodd"><path fill="#0A469C" d="M0 0h200v120H0z"/><g fill="#FFF" fill-rule="nonzero"><path d="M131.297 69.233h8.36c.238 0 .796-.08 1.035-.08 1.592-.32 2.945-1.761 2.945-3.763 0-1.921-1.353-3.362-2.945-3.763-.24-.08-.717-.08-1.035-.08h-8.36z"/><path d="M138.701 16.154c-7.961 0-14.49 6.485-14.49 14.57v15.132h20.461c.478 0 1.035 0 1.433.08 4.618.24 8.041 2.642 8.041 6.805 0 3.282-2.309 6.084-6.608 6.645v.16c4.697.32 8.28 2.962 8.28 7.045 0 4.403-3.98 7.286-9.235 7.286h-22.45v29.621h21.256c7.96 0 14.49-6.484 14.49-14.57V16.154z"/><path d="M142.602 53.702c0-1.922-1.353-3.203-2.945-3.443-.16 0-.558-.08-.797-.08h-7.563v7.045h7.563c.24 0 .717 0 .797-.08 1.592-.24 2.945-1.521 2.945-3.442M58.611 16.154c-7.96 0-14.49 6.485-14.49 14.57v35.947c4.061 2.002 8.28 3.283 12.5 3.283 5.016 0 7.722-3.043 7.722-7.206V45.776h12.42v16.892c0 6.565-4.06 11.929-17.833 11.929-8.36 0-14.888-1.841-14.888-1.841v30.662H65.3c7.961 0 14.49-6.484 14.49-14.57V16.154zm40.045 0c-7.96 0-14.49 6.485-14.49 14.57V49.78c3.663-3.123 10.032-5.124 20.302-4.644 5.493.24 11.385 1.762 11.385 1.762v6.164c-2.946-1.521-6.45-2.882-10.987-3.202-7.802-.56-12.5 3.282-12.5 10.007 0 6.805 4.698 10.648 12.5 10.008 4.538-.32 8.04-1.762 10.987-3.203v6.165s-5.812 1.52-11.385 1.761c-10.27.48-16.639-1.521-20.301-4.643v33.624h21.256c7.962 0 14.49-6.484 14.49-14.57V16.154z"/></g></g></svg>