<svg xmlns="http://www.w3.org/2000/svg" width="89" height="89" viewBox="0 0 89 89" fill="none"><g clip-path="url(#a)" stroke-width="4.5" stroke-linecap="round"><path d="m29.203 46.884 9.536 9.536 23.84-23.84" stroke="#F59C53" stroke-linejoin="round"/><path d="M44.498 7.416c20.48 0 37.084 16.603 37.084 37.083 0 20.481-16.603 37.084-37.084 37.084-20.48 0-37.083-16.603-37.083-37.083 0-10.374 4.26-19.753 11.125-26.483" stroke="#fff"/><path d="M70.722 18.277c14.482 14.482 14.482 37.962 0 52.444s-37.962 14.482-52.444 0-14.482-37.962 0-52.444c7.335-7.335 16.98-10.955 26.593-10.86" stroke="#fff"/></g><defs><clipPath id="a"><path fill="#fff" d="M0 0h89v89H0z"/></clipPath></defs></svg>