<svg xmlns="http://www.w3.org/2000/svg" width="24" height="24" viewBox="0 0 24 24" fill="none"><path d="M20 2H4a2 2 0 0 0-2 2v4a2 2 0 0 0 2 2h16a2 2 0 0 0 2-2V4a2 2 0 0 0-2-2" stroke="#FCFCFC" stroke-width="1.5" stroke-linecap="round" stroke-linejoin="round"/><path d="M20 14H4a2 2 0 0 0-2 2v4a2 2 0 0 0 2 2h16a2 2 0 0 0 2-2v-4a2 2 0 0 0-2-2" stroke="#F59C53" stroke-width="1.5" stroke-linecap="round" stroke-linejoin="round"/><path d="M6 6h.01M6 18h.01" stroke="#F59C53" stroke-width="2" stroke-linecap="round" stroke-linejoin="round"/></svg>