<svg width="200" height="120" viewBox="0 0 200 120" xmlns="http://www.w3.org/2000/svg"><g fill="none" fill-rule="evenodd"><path fill="#10427A" d="M0 0h200v120H0z"/><g fill-rule="nonzero"><path fill="#6C6BBD" d="M115.52 76.881H88.48V26.808h27.04z"/><path d="M90.196 51.845c0-10.157 4.616-19.205 11.803-25.036-5.256-4.264-11.89-6.81-19.098-6.81C65.834 20 52 34.258 52 51.846s13.834 31.845 30.9 31.845c7.21 0 13.844-2.545 19.1-6.809-7.188-5.83-11.804-14.879-11.804-25.037" fill="#D32011"/><path d="M152 51.845c0 17.588-13.834 31.846-30.9 31.846-7.21 0-13.843-2.545-19.101-6.809 7.19-5.83 11.805-14.879 11.805-25.037s-4.616-19.204-11.805-25.036c5.258-4.264 11.891-6.81 19.1-6.81C138.166 20 152 34.258 152 51.846" fill="#0099DF"/><path d="M127.61 94.5c.407 0 .99.076 1.437.246l-.621 1.842a3.4 3.4 0 0 0-1.261-.226c-1.319 0-1.978.827-1.978 2.312v5.04h-2.018v-8.987h1.998v1.09c.524-.789 1.28-1.316 2.444-1.316m-7.454 2.013h-3.297v4.06c0 .903.328 1.505 1.339 1.505.523 0 1.183-.17 1.782-.508l.582 1.672c-.64.433-1.647.698-2.52.698-2.386 0-3.219-1.242-3.219-3.33v-4.097h-1.882v-1.786h1.882V92h2.036v2.727h3.296zM94.341 98.43c.216-1.297 1.028-2.182 2.464-2.182 1.3 0 2.134.79 2.347 2.182zm6.906.79c-.02-2.802-1.804-4.72-4.404-4.72-2.715 0-4.615 1.918-4.615 4.72 0 2.856 1.978 4.718 4.753 4.718 1.396 0 2.675-.338 3.8-1.26l-.99-1.448a4.5 4.5 0 0 1-2.695.94c-1.298 0-2.482-.582-2.772-2.199h6.884c.02-.245.04-.488.04-.75m8.862-2.2c-.561-.34-1.705-.772-2.888-.772-1.105 0-1.765.396-1.765 1.055 0 .6.697.77 1.57.882l.95.131c2.018.284 3.239 1.11 3.239 2.69 0 1.711-1.552 2.934-4.227 2.934-1.514 0-2.91-.377-4.016-1.167l.95-1.523c.68.508 1.69.94 3.086.94 1.376 0 2.113-.394 2.113-1.091 0-.506-.524-.79-1.629-.938l-.95-.132c-2.076-.284-3.201-1.185-3.201-2.651 0-1.786 1.514-2.877 3.86-2.877 1.474 0 2.813.32 3.78.94zm24.874-.662q-.622 0-1.157.21a2.8 2.8 0 0 0-.923.595 2.75 2.75 0 0 0-.613.914 3 3 0 0 0-.222 1.173q0 .642.222 1.173.224.533.613.915.39.381.923.594.536.212 1.157.21.623.002 1.157-.21.537-.213.928-.594.394-.382.619-.915.223-.531.222-1.173 0-.639-.222-1.173a2.73 2.73 0 0 0-1.547-1.508q-.534-.21-1.157-.211m0-1.857q1.08 0 1.998.363a4.9 4.9 0 0 1 1.59.999 4.6 4.6 0 0 1 1.05 1.502q.378.868.379 1.885 0 1.017-.38 1.886a4.6 4.6 0 0 1-1.05 1.504 4.9 4.9 0 0 1-1.589.998 5.4 5.4 0 0 1-1.999.361q-1.08 0-1.998-.362a4.9 4.9 0 0 1-1.583-.998 4.6 4.6 0 0 1-1.045-1.504 4.7 4.7 0 0 1-.38-1.886q0-1.017.38-1.885a4.6 4.6 0 0 1 1.045-1.502q.665-.637 1.583-.999a5.4 5.4 0 0 1 1.998-.363m-52.425 4.72c0-1.58 1.068-2.878 2.813-2.878 1.667 0 2.792 1.242 2.792 2.877 0 1.636-1.125 2.875-2.792 2.875-1.745 0-2.813-1.295-2.813-2.875m7.506 0v-4.494h-2.016v1.09c-.642-.808-1.61-1.316-2.928-1.316-2.6 0-4.635 1.973-4.635 4.72 0 2.743 2.036 4.719 4.635 4.719 1.319 0 2.286-.508 2.928-1.317v1.09h2.016zM78.7 103.713v-5.64c0-2.125-1.396-3.554-3.645-3.573-1.183-.02-2.406.338-3.259 1.599-.64-.997-1.65-1.6-3.065-1.6-.988 0-1.958.283-2.715 1.335v-1.108H64v8.987h2.036v-4.982c0-1.56.892-2.39 2.268-2.39 1.339 0 2.018.847 2.018 2.37v5.002h2.036v-4.982c0-1.56.932-2.39 2.269-2.39 1.378 0 2.037.847 2.037 2.37v5.002z" fill="#FFF"/></g></g></svg>