<svg width="200" height="120" viewBox="0 0 200 120" xmlns="http://www.w3.org/2000/svg"><g fill="none" fill-rule="evenodd"><path fill="#10427A" d="M0 0h200v120H0z"/><g fill-rule="nonzero"><path fill="#FF5F00" d="M88.445 26.795h27.012v49.95H88.445z"/><path d="M90.16 51.77c0-10.148 4.63-19.15 11.748-24.975C96.677 22.56 90.074 20 82.87 20 65.806 20 52 34.208 52 51.77s13.806 31.77 30.87 31.77c7.204 0 13.807-2.558 19.038-6.795C94.79 71.01 90.16 61.92 90.16 51.77" fill="#EB001B"/><path d="M151.9 51.77c0 17.562-13.805 31.77-30.87 31.77-7.203 0-13.806-2.558-19.037-6.795 7.203-5.824 11.748-14.826 11.748-24.975 0-10.148-4.63-19.15-11.748-24.975C107.224 22.56 113.827 20 121.03 20c17.065 0 30.87 14.297 30.87 31.77" fill="#F79E1B"/><path d="M66.571 103.824v-5.295c0-2.029-1.333-3.353-3.619-3.353-1.142 0-2.38.353-3.238 1.5-.666-.97-1.619-1.5-3.047-1.5-.953 0-1.905.265-2.667 1.236v-1.06h-2v8.472h2v-4.677c0-1.5.857-2.206 2.19-2.206 1.334 0 2 .794 2 2.206v4.677h2v-4.677c0-1.5.953-2.206 2.191-2.206 1.333 0 2 .794 2 2.206v4.677zm29.62-8.471h-3.239v-2.559h-2v2.559h-1.81v1.676h1.81v3.883c0 1.94.858 3.088 3.143 3.088.857 0 1.81-.265 2.476-.618L96 101.794c-.571.353-1.238.441-1.714.441-.953 0-1.334-.53-1.334-1.411v-3.795h3.238zm16.952-.177c-1.143 0-1.905.53-2.381 1.236v-1.06h-2v8.472h2v-4.765c0-1.412.667-2.206 1.905-2.206.38 0 .857.088 1.238.176l.571-1.764c-.38-.089-.952-.089-1.333-.089m-25.62.883c-.952-.618-2.285-.883-3.713-.883-2.286 0-3.81 1.06-3.81 2.736 0 1.412 1.143 2.206 3.143 2.47l.952.089c1.048.176 1.62.44 1.62.882 0 .618-.763 1.059-2.096 1.059s-2.38-.441-3.048-.883l-.952 1.412c1.048.706 2.476 1.059 3.905 1.059 2.666 0 4.19-1.147 4.19-2.735 0-1.5-1.238-2.294-3.143-2.56l-.952-.087c-.857-.089-1.524-.265-1.524-.794 0-.618.667-.971 1.715-.971 1.142 0 2.285.441 2.857.706zm53.144-.883c-1.143 0-1.905.53-2.381 1.236v-1.06h-2v8.472h2v-4.765c0-1.412.666-2.206 1.904-2.206.381 0 .858.088 1.239.176l.571-1.764c-.381-.089-.952-.089-1.333-.089m-25.524 4.412c0 2.56 1.905 4.412 4.857 4.412 1.333 0 2.286-.265 3.238-.97l-.952-1.5c-.762.529-1.524.794-2.381.794-1.62 0-2.762-1.06-2.762-2.736 0-1.588 1.143-2.647 2.762-2.735.857 0 1.619.265 2.38.794l.953-1.5c-.952-.706-1.905-.97-3.238-.97-2.952 0-4.857 1.852-4.857 4.411m18.476 0v-4.235h-2v1.059c-.667-.794-1.619-1.236-2.857-1.236-2.572 0-4.572 1.853-4.572 4.412s2 4.412 4.572 4.412c1.333 0 2.286-.441 2.857-1.235v1.059h2zm-7.333 0c0-1.5 1.047-2.735 2.762-2.735 1.619 0 2.762 1.147 2.762 2.735 0 1.5-1.143 2.736-2.762 2.736-1.715-.089-2.762-1.236-2.762-2.736m-23.906-4.412c-2.667 0-4.571 1.765-4.571 4.412S99.714 104 102.476 104c1.334 0 2.667-.353 3.714-1.147l-.952-1.324c-.762.53-1.714.883-2.667.883-1.238 0-2.476-.53-2.761-2.03h6.761v-.706c.096-2.735-1.619-4.5-4.19-4.5m0 1.589c1.238 0 2.095.706 2.286 2.03h-4.762c.19-1.148 1.047-2.03 2.476-2.03M152 99.588V92h-2v4.412c-.667-.794-1.619-1.236-2.857-1.236-2.572 0-4.572 1.853-4.572 4.412s2 4.412 4.572 4.412c1.333 0 2.286-.441 2.857-1.235v1.059h2zm-7.333 0c0-1.5 1.047-2.735 2.762-2.735 1.619 0 2.761 1.147 2.761 2.735 0 1.5-1.142 2.736-2.761 2.736-1.715-.089-2.762-1.236-2.762-2.736m-66.857 0v-4.235h-2v1.059c-.667-.794-1.62-1.236-2.858-1.236-2.571 0-4.571 1.853-4.571 4.412s2 4.412 4.571 4.412c1.334 0 2.286-.441 2.858-1.235v1.059h2zm-7.429 0c0-1.5 1.048-2.735 2.762-2.735 1.619 0 2.762 1.147 2.762 2.735 0 1.5-1.143 2.736-2.762 2.736-1.714-.089-2.762-1.236-2.762-2.736" fill="#FFF"/></g></g></svg>