<svg xmlns="http://www.w3.org/2000/svg" width="32" height="32" viewBox="0 0 32 32" fill="none"><path d="M3.401 6c.085-.867.278-1.45.713-1.886.781-.78 2.039-.78 4.553-.78s3.77 0 4.552.78C14 4.895 14 6.153 14 8.667s0 3.77-.781 4.552S11.181 14 8.667 14s-3.772 0-4.553-.781c-.412-.412-.607-.958-.699-1.75" stroke="#F59C53" stroke-width="2" stroke-linecap="round"/><path d="M28.599 20.667c-.085-.867-.278-1.45-.713-1.886C27.105 18 25.848 18 23.333 18c-2.514 0-3.77 0-4.552.781S18 20.819 18 23.333c0 2.515 0 3.772.781 4.553.781.78 2.038.78 4.552.78 2.515 0 3.772 0 4.553-.78.435-.436.628-1.02.713-1.886" stroke="#fff" stroke-width="2" stroke-linecap="round"/><path d="M3.333 23.333c0-2.514 0-3.77.781-4.552S6.153 18 8.667 18s3.77 0 4.552.781.781 2.038.781 4.552c0 2.515 0 3.772-.781 4.553-.781.78-2.038.78-4.552.78s-3.772 0-4.553-.78c-.78-.781-.78-2.038-.78-4.553ZM18 8.667c0-2.514 0-3.772.781-4.553.781-.78 2.038-.78 4.552-.78 2.515 0 3.772 0 4.553.78.78.781.78 2.039.78 4.553s0 3.77-.78 4.552c-.781.781-2.038.781-4.553.781-2.514 0-3.77 0-4.552-.781S18 11.18 18 8.667Z" stroke="#fff" stroke-width="2"/></svg>