<svg xmlns="http://www.w3.org/2000/svg" width="25" height="25" viewBox="0 0 25 25" fill="none"><path d="M14.083 3.412a6.75 6.75 0 0 0-3.7 0c.29-.74 1.01-1.26 1.85-1.26s1.56.52 1.85 1.26" stroke="#fff" stroke-width="1.465" stroke-miterlimit="10" stroke-linecap="round" stroke-linejoin="round"/><path d="M15.232 20.22c0 1.65-1.35 3-3 3-.82 0-1.58-.34-2.12-.88a3 3 0 0 1-.88-2.12" stroke="#F59C53" stroke-width="1.465" stroke-miterlimit="10"/><path d="M12.232 3.122c-3.31 0-6 2.69-6 6v2.89c0 .61-.26 1.54-.57 2.06l-1.15 1.91c-.71 1.18-.22 2.49 1.08 2.93 4.31 1.44 8.96 1.44 13.27 0 1.21-.4 1.74-1.83 1.08-2.93l-1.15-1.91c-.3-.52-.56-1.45-.56-2.06v-2.89c0-3.3-2.7-6-6-6Z" stroke="#fff" stroke-width="1.465" stroke-miterlimit="10" stroke-linecap="round"/></svg>