<svg xmlns="http://www.w3.org/2000/svg" width="40" height="40" viewBox="0 0 40 40" fill="none"><path d="M6.667 10v21.667a5 5 0 0 0 5 5h16.666a5 5 0 0 0 5-5V15a5 5 0 0 0-5-5zm0 0V8.333" stroke="#fff" stroke-width="2"/><circle cx="20" cy="21.667" r="5" stroke="#fff" stroke-opacity=".5" stroke-width="2"/><path d="M30 10v1h1v-1zm-3.805-6.123-.141-.99zM8.2 6.447l-.141-.99zM8.452 11H30V9H8.452zM31 10V7.177h-2V10zm-4.946-7.113L8.058 5.457l.283 1.98 17.996-2.57zM8.058 5.457a2.785 2.785 0 0 0-2.391 2.758h2c0-.39.287-.722.674-.777zM31 7.178a4.333 4.333 0 0 0-4.946-4.29l.283 1.98A2.333 2.333 0 0 1 29 7.178zM8.452 9a.785.785 0 0 1-.785-.785h-2A2.785 2.785 0 0 0 8.452 11z" fill="#fff"/><path d="M16.667 31.667h6.666" stroke="#fff" stroke-opacity=".5" stroke-width="2" stroke-linecap="round"/></svg>