<svg xmlns="http://www.w3.org/2000/svg" width="33" height="32" viewBox="0 0 33 32" fill="none"><path d="M3.167 16c0-6.285 0-9.428 1.952-11.38C7.072 2.666 10.215 2.666 16.5 2.666s9.428 0 11.38 1.952C29.834 6.572 29.834 9.715 29.834 16s0 9.428-1.952 11.38c-1.953 1.953-5.096 1.953-11.381 1.953s-9.428 0-11.38-1.952C3.166 25.428 3.166 22.285 3.166 16Z" stroke="#fff" stroke-width="2"/><path d="M8.5 9.333v13.334m14-10 2-2M13.833 21.333l2-2m0-6.666-2-2M24.5 21.333l-2-2" stroke="#F59C53" stroke-width="2" stroke-linecap="round"/><path d="M15.167 16a4 4 0 1 1 8 0 4 4 0 0 1-8 0Z" stroke="#fff" stroke-width="2"/></svg>