<svg xmlns="http://www.w3.org/2000/svg" width="29" height="30" viewBox="0 0 29 30" fill="none"><path d="M10.492 1.667c-3.73.085-5.907.441-7.396 1.93s-1.844 3.666-1.93 7.395m17.342-9.325c3.73.085 5.907.441 7.396 1.93s1.844 3.666 1.93 7.395m-9.326 17.341c3.73-.085 5.907-.441 7.396-1.93s1.844-3.666 1.93-7.395m-17.342 9.325c-3.73-.085-5.907-.441-7.396-1.93s-1.844-3.666-1.93-7.395" stroke="#fff" stroke-width="1.5" stroke-linecap="round" stroke-linejoin="round"/><path d="M21.166 8.333h.012" stroke="#F59C53" stroke-width="2" stroke-linecap="round" stroke-linejoin="round"/><path d="M15.833 7v4c0 2.514 0 3.771-.78 4.552-.782.781-2.039.781-4.553.781h-4" stroke="#F59C53" stroke-width="1.5" stroke-linecap="round"/><path d="M6.89 7.39c-.39.391-.39 1.02-.39 2.277s0 1.885.39 2.276m0-4.552C7.282 7 7.91 7 9.168 7s1.885 0 2.276.39m-4.552 0Zm0 4.553c.39.39 1.019.39 2.276.39s1.885 0 2.276-.39m-4.552 0Zm4.552 0c.39-.39.39-1.02.39-2.276 0-1.257 0-1.886-.39-2.276m0 4.552Zm0-4.552Z" stroke="#fff" stroke-width="1.5"/><path d="M21.167 19c.628 0 .942 0 1.138.195s.195.51.195 1.138v1.334c0 .628 0 .942-.195 1.138s-.51.195-1.138.195H18.5c-.628 0-.943 0-1.138-.195s-.195-.51-.195-1.138v-1.334c0-.628 0-.942.195-1.138S17.872 19 18.5 19z" stroke="#F59C53" stroke-width="1.5"/><path d="M6.5 23h6.667m8-10.667V15" stroke="#fff" stroke-width="1.5" stroke-linecap="round"/></svg>