<svg width="26" height="26" viewBox="0 0 26 26" fill="none" xmlns="http://www.w3.org/2000/svg"><path d="M17.187 11.353v-.833c0-1.8-.434-4.187-4.187-4.187S8.813 8.72 8.813 10.52v.833c-1.866.234-2.48 1.18-2.48 3.507v1.24c0 2.733.834 3.567 3.567 3.567h6.2c2.733 0 3.567-.834 3.567-3.567v-1.24c0-2.327-.614-3.273-2.48-3.507M13 17.493a2.016 2.016 0 0 1-2.013-2.013c0-1.113.906-2.013 2.013-2.013a2.02 2.02 0 0 1 2.013 2.013c0 1.113-.9 2.013-2.013 2.013m-3.1-6.2h-.153v-.773c0-1.953.553-3.253 3.253-3.253s3.253 1.3 3.253 3.253v.78H9.9z" fill="#F59C53"/><circle cx="13" cy="13" r="12.5" stroke="#FCFCFC"/></svg>