<svg xmlns="http://www.w3.org/2000/svg" width="28" height="24" viewBox="0 0 24 24" class="svg-main-icon"><g fill="none" fill-rule="evenodd"><path d="M0 0h24v24H0z"/><path d="M4 16h1a1 1 0 0 1 0 2H4a1 1 0 0 1 0-2m-3-5h4a1 1 0 0 1 0 2H1a1 1 0 0 1 0-2m2-5h2a1 1 0 1 1 0 2H3a1 1 0 1 1 0-2" fill="#5970f5" opacity=".3"/><path d="M10 6h12a2 2 0 0 1 2 2v8a2 2 0 0 1-2 2H10a2 2 0 0 1-2-2V8a2 2 0 0 1 2-2m11.085 2.072L16 10.719l-5.085-2.647a.63.63 0 0 0-.84.244.59.59 0 0 0 .252.812l5.379 2.8a.64.64 0 0 0 .588 0l5.38-2.8a.59.59 0 0 0 .252-.812.63.63 0 0 0-.841-.244" fill="#5970f5"/></g></svg>