<svg xmlns="http://www.w3.org/2000/svg" width="24" height="24" viewBox="0 0 24 24" class="svg-main-icon"><g fill="none" fill-rule="evenodd"><path d="M0 0h24v24H0z"/><path d="m4 4 7.631-1.43a2 2 0 0 1 .738 0L20 4v9.283a8.51 8.51 0 0 1-4 7.217l-3.47 2.169a1 1 0 0 1-1.06 0L8 20.5a8.51 8.51 0 0 1-4-7.217z" fill="#38a957" opacity=".3"/><path d="M11.175 14.75a.95.95 0 0 1-.67-.287l-1.917-1.917a.926.926 0 0 1 0-1.342c.383-.383 1.006-.383 1.341 0l1.246 1.246 3.163-3.162a.926.926 0 0 1 1.341 0 .926.926 0 0 1 0 1.341l-3.833 3.834a.95.95 0 0 1-.671.287" fill="#38a957"/></g></svg>