<svg xmlns="http://www.w3.org/2000/svg" width="9" height="6" viewBox="0 0 9 6" fill="none"><g clip-path="url(#a)"><path d="M9 .376c0-.1-.032-.195-.088-.266A.27.27 0 0 0 8.7 0H6.222c-.08 0-.156.04-.213.11a.43.43 0 0 0-.087.266c0 .1.031.195.088.266.056.07.132.11.212.11h1.746l-2.49 3.082-2.273-2.026a.26.26 0 0 0-.2-.068.28.28 0 0 0-.189.111L.076 5.375A.44.44 0 0 0 0 5.638a.43.43 0 0 0 .09.255C.147 5.961.22 6 .298 6a.27.27 0 0 0 .208-.1l2.562-3.293 2.267 2.022a.26.26 0 0 0 .2.068.28.28 0 0 0 .186-.108L8.4 1.276v2.2c0 .1.03.196.087.266s.133.11.213.11.156-.039.212-.11A.43.43 0 0 0 9 3.477z" fill="#02CC53"/></g><defs><clipPath id="a"><path fill="#fff" d="M0 0h9v6H0z"/></clipPath></defs></svg>