<svg xmlns="http://www.w3.org/2000/svg" width="24" height="24" viewBox="0 0 24 24" class="svg-main-icon"><g fill="none" fill-rule="evenodd"><path d="M0 0h24v24H0z"/><path d="M2 13c0-.5.5-1 1-1s1 .5 1 1v5a2 2 0 0 0 2 2h12a2 2 0 0 0 2-2v-5a1 1 0 0 1 2 0v5a4 4 0 0 1-4 4H6a4 4 0 0 1-4-4z" fill="#22977c" fill-rule="nonzero" opacity=".3"/><rect fill="#22977c" opacity=".3" x="11" y="2" width="2" height="14" rx="1"/><path d="m12.036 3.378-4.329 4.33a1 1 0 0 1-1.414-1.415l5-5a1 1 0 0 1 1.376-.036l5 4.5a1 1 0 1 1-1.338 1.486z" fill="#22977c" fill-rule="nonzero"/></g></svg>