<svg xmlns="http://www.w3.org/2000/svg" width="33" height="32" viewBox="0 0 33 32" fill="none"><path d="m3.167 16.667 2.335-2.044a3.067 3.067 0 0 1 4.188.14l5.72 5.72a2.67 2.67 0 0 0 3.418.296l.398-.28a4 4 0 0 1 4.976.3l4.298 3.868" stroke="#F59C53" stroke-width="2" stroke-linecap="round"/><path d="M29.833 16c0 6.285 0 9.428-1.952 11.38-1.953 1.953-5.096 1.953-11.381 1.953s-9.428 0-11.38-1.952C3.166 25.428 3.166 22.285 3.166 16s0-9.428 1.952-11.38c1.953-1.953 5.095-1.953 11.38-1.953" stroke="#fff" stroke-width="2" stroke-linecap="round"/><path d="M23.167 2.667v12m0-12 4 4m-4-4-4 4" stroke="#F59C53" stroke-width="2" stroke-linecap="round"/></svg>