<svg width="200" height="120" viewBox="0 0 200 120" xmlns="http://www.w3.org/2000/svg"><g fill="none" fill-rule="evenodd"><path fill="#25459A" d="M0 0h200v120H0z"/><path d="M100.267 52.788c-.075 5.572 5.292 8.681 9.335 10.53 4.154 1.897 5.549 3.113 5.533 4.81-.032 2.595-3.313 3.741-6.385 3.786-5.36.078-8.475-1.358-10.952-2.444l-1.93 8.477c2.485 1.075 7.087 2.012 11.859 2.053 11.201 0 18.53-5.189 18.57-13.234.044-10.21-15.05-10.776-14.947-15.34.036-1.383 1.443-2.86 4.526-3.236 1.526-.19 5.74-.334 10.516 1.73l1.875-8.202c-2.568-.877-5.87-1.718-9.98-1.718-10.544 0-17.96 5.26-18.02 12.788m46.015-12.081c-2.045 0-3.77 1.12-4.538 2.838l-16.002 35.852h11.194l2.227-5.776h13.68l1.291 5.776H164l-8.61-38.69zm1.566 10.452 3.23 14.528h-8.847zM86.695 40.707l-8.823 38.69H88.54l8.819-38.69zm-15.78 0L59.814 67.04l-4.49-22.392c-.528-2.5-2.609-3.942-4.92-3.942h-18.15L32 41.83c3.726.759 7.96 1.983 10.524 3.292 1.57.8 2.017 1.499 2.533 3.4l8.506 30.874h11.273l17.281-38.69z" fill="#FFF" fill-rule="nonzero"/></g></svg>