<svg width="200" height="120" viewBox="0 0 200 120" xmlns="http://www.w3.org/2000/svg"><g fill="none" fill-rule="evenodd"><path fill="#000" d="M0 0h200v120H0z"/><path d="M71.156 44c-4.637 0-7.283 1.81-7.283 4.989 0 1.97.855 3.397 3.295 4.096l4.45 1.255c.595.169 1.07.487 1.07 1.059 0 .679-.608 1.254-1.532 1.254-.593 0-.971-.205-1.214-.502-.241-.318-.347-.747-.347-1.17h-6.011c0 3.984 3.517 5.128 7.34 5.128 4.484 0 7.63-1.572 7.63-5.323 0-1.844-.862-3.209-2.86-4.014-1.605-.656-3.82-1.082-5.03-1.421-.66-.19-1.04-.425-1.04-.975 0-.468.434-.892 1.445-.892.813 0 1.366.327 1.388 1.282h5.635c0-3.56-2.98-4.766-6.936-4.766m86.647.111v33.973h1.995V44.111zm20.087.112c-1.172 0-2.139.915-2.139 2.034 0 1.13.967 2.035 2.14 2.035 1.166 0 2.109-.904 2.109-2.035 0-1.119-.943-2.034-2.11-2.034M20 44.418l3.44 15.3h6.82l1.474-9.921h.029l1.474 9.921h6.82l3.44-15.3h-5.636l-1.33 9.615h-.057L35 44.418h-6.503l-1.474 9.615h-.029l-1.358-9.615zm27.341 0v15.3h12.254v-3.985h-6.242v-1.728h5.578V50.02h-5.578v-1.617h6.04v-3.985zm34.798 0v4.097h3.93v11.203h6.272V48.515h3.93v-4.097zm18.381 0v15.3h12.283v-3.985h-6.242v-1.728h5.578V50.02h-5.579v-1.617h6.04v-3.985zm16.937 0v15.3h6.156v-5.462h.722c1.01 0 1.4.297 1.532 1.059.22 1.314.407 3.259.78 4.403h6.156c-.724-2.31-.66-4.483-1.011-5.796-.308-1.167-1.15-1.824-2.688-1.951v-.028c2.373-.552 3.15-1.892 3.15-3.651 0-2.883-1.997-3.874-5.404-3.874zm19.74 0v15.3h5.086v-9.336h.058l3.353 9.336h7.543v-15.3h-5.116v9.253h-.028l-3.353-9.253zm34.826 0v33.61h1.994V44.419zm5.867.056c1.027 0 1.763.794 1.763 1.783 0 1.002-.736 1.756-1.763 1.756-1.032 0-1.792-.754-1.792-1.756 0-.99.76-1.783 1.792-1.783m-.78.64V47.4h.289v-1.059h.52l.665 1.06h.347l-.694-1.06c.418-.011.723-.166.723-.613 0-.376-.213-.613-.839-.613zm.289.196h.665c.29 0 .578.036.578.39 0 .464-.476.418-.81.418h-.433zm-53.786 2.592h.578c1.231 0 2.023.215 2.023 1.337 0 1.145-.872 1.561-2.081 1.561h-.52zm.636 14.408c-5.473 0-8.209 3.287-8.209 8.055 0 4.769 2.736 8.054 8.209 8.054s8.179-3.285 8.179-8.054c0-4.768-2.707-8.055-8.18-8.055m-60.896.39v10.173c0 3.688 2.751 5.546 7.543 5.546 4.79 0 7.543-1.858 7.543-5.546V62.7h-6.3v9.922c0 1.207-.584 1.672-1.243 1.672s-1.243-.465-1.243-1.672V62.7zm20.289 0V78h5.115v-9.308h.03l3.352 9.309h7.543V62.7h-5.087v9.28h-.057l-3.353-9.28zm21.359 0V78h6.3V62.7zm32.197 0V78h5.086v-9.308h.058l3.353 9.309h7.543V62.7h-5.116v9.28h-.028l-3.353-9.28zm-12.948 3.596c1.011 0 1.676.615 1.676 4.069 0 3.539-.71 4.069-1.676 4.069-.967 0-1.706-.53-1.706-4.07 0-3.453.695-4.068 1.706-4.068" fill="#F8D837"/></g></svg>